<?xml version="1.0" encoding="UTF-8"?>
<!DOCTYPE svg PUBLIC "-//W3C//DTD SVG 1.1//EN" "http://www.w3.org/Graphics/SVG/1.1/DTD/svg11.dtd">
<!-- Creator: CorelDRAW 2019 (64-Bit) -->
<svg xmlns="http://www.w3.org/2000/svg" xml:space="preserve" width="179.806mm" height="17.9985mm" version="1.1" style="shape-rendering:geometricPrecision; text-rendering:geometricPrecision; image-rendering:optimizeQuality; fill-rule:evenodd; clip-rule:evenodd"
viewBox="0 0 179.633 17.9811"
 xmlns:xlink="http://www.w3.org/1999/xlink"
 xmlns:xodm="http://www.corel.com/coreldraw/odm/2003">
 <defs>
  <style type="text/css">
   <![CDATA[
    .str0 {stroke:black;stroke-width:0.3525;stroke-miterlimit:22.9256}
    .fil4 {fill:url(#id0)}
    .fil0 {fill:url(#id1)}
    .fil7 {fill:url(#id2)}
    .fil3 {fill:url(#id3)}
    .fil6 {fill:url(#id4)}
    .fil1 {fill:url(#id5)}
    .fil5 {fill:url(#id6)}
    .fil2 {fill:url(#id7)}
   ]]>
  </style>
  <linearGradient id="id0" gradientUnits="userSpaceOnUse" x1="57.5418" y1="0.2404" x2="57.5418" y2="17.7986">
   <stop offset="0" style="stop-opacity:1; stop-color:#E3DFDF"/>
   <stop offset="0.298039" style="stop-opacity:1; stop-color:#F0EEEE"/>
   <stop offset="0.490196" style="stop-opacity:1; stop-color:#A1A1A1"/>
   <stop offset="0.65098" style="stop-opacity:1; stop-color:#6F797D"/>
   <stop offset="0.870588" style="stop-opacity:1; stop-color:#949494"/>
   <stop offset="1" style="stop-opacity:1; stop-color:#FEFEFE"/>
  </linearGradient>
  <linearGradient id="id1" gradientUnits="userSpaceOnUse" xlink:href="#id0" x1="14.4438" y1="0.1762" x2="14.4438" y2="17.7986">
  </linearGradient>
  <linearGradient id="id2" gradientUnits="userSpaceOnUse" xlink:href="#id0" x1="161.3053" y1="0.2404" x2="161.3053" y2="17.7986">
  </linearGradient>
  <linearGradient id="id3" gradientUnits="userSpaceOnUse" xlink:href="#id0" x1="48.8681" y1="0.1777" x2="48.8681" y2="17.8034">
  </linearGradient>
  <linearGradient id="id4" gradientUnits="userSpaceOnUse" xlink:href="#id0" x1="120.6925" y1="0.242" x2="120.6925" y2="17.7986">
  </linearGradient>
  <linearGradient id="id5" gradientUnits="userSpaceOnUse" xlink:href="#id0" x1="29.1708" y1="0.1762" x2="29.1708" y2="17.7986">
  </linearGradient>
  <linearGradient id="id6" gradientUnits="userSpaceOnUse" xlink:href="#id0" x1="77.7446" y1="0.2404" x2="77.7446" y2="17.8049">
  </linearGradient>
  <linearGradient id="id7" gradientUnits="userSpaceOnUse" xlink:href="#id0" x1="39.444" y1="0.1762" x2="39.444" y2="17.7986">
  </linearGradient>
 </defs>
 <g id="Layer_x0020_1">
  <metadata id="CorelCorpID_0Corel-Layer"/>
  <g id="_739597424">
   <path class="fil0 str0" d="M13.9601 0.1762c-0.468,0 -1.0829,0.3053 -1.3646,0.6789l-12.2769 16.2643c-0.2833,0.3742 -0.1299,0.6791 0.3381,0.6791l14.2598 0c0.4677,0 1.0814,-0.3049 1.3643,-0.6791l12.2878 -16.2578c0.2833,-0.3742 0.1316,-0.6791 -0.338,-0.6791l-14.2705 -0.0063z"/>
   <path class="fil1 str0" d="M39.5137 0.8552c0.283,-0.3736 0.1301,-0.6789 -0.3378,-0.6789l-6.7012 0c-0.4678,0 -1.0814,0.3053 -1.3645,0.6789l-12.2829 16.2643c-0.2816,0.3742 -0.1303,0.6791 0.3378,0.6791l6.7075 0c0.4678,0 1.0829,-0.3049 1.3644,-0.6791l12.2767 -16.2643z"/>
   <path class="fil2 str0" d="M43.5435 0.1762c-0.4679,0 -1.0831,0.3053 -1.3646,0.6789l-12.2829 16.2643c-0.2833,0.3742 -0.1304,0.6791 0.3377,0.6791l5.1096 0c0.4694,0 1.0827,-0.3049 1.3661,-0.6791l12.2834 -16.2643c0.2816,-0.3736 0.1298,-0.6789 -0.3399,-0.6789l-5.1094 0z"/>
   <path class="fil3 str0" d="M40.1176 17.1244c-0.2815,0.3754 -0.1296,0.6805 0.3399,0.6789l3.5194 -0.003c0.4678,0 1.0812,-0.3066 1.3645,-0.6808l12.2769 -16.2578c0.2817,-0.3742 0.1298,-0.6791 -0.338,-0.6805l-3.5195 -0.0033c-0.4694,-0.0016 -1.0828,0.3037 -1.3646,0.6789l-12.2786 16.2676z"/>
   <path class="fil4 str0" d="M49.2744 17.1211c-0.2833,0.3726 -0.1315,0.6775 0.3378,0.6775l2.5554 0c0.4695,0 1.0846,-0.3049 1.3665,-0.6791l12.2749 -16.2002c0.2833,-0.3721 0.1316,-0.6789 -0.3366,-0.6789l-2.5459 0c-0.4677,0 -1.0828,0.3068 -1.366,0.6789l-12.2861 16.2017z"/>
   <path class="fil5 str0" d="M71.9168 9.1433c-0.4678,0 -0.6213,-0.3068 -0.3392,-0.6806l2.2735 -3.0175c0.2815,-0.3737 0.8954,-0.6806 1.3649,-0.6806l15.8131 0c0.4679,0 0.853,0.3834 0.853,0.8529l0.0032 2.6682c0.0017,0.4679 -0.3818,0.8514 -0.8497,0.8514l-19.1188 0.0063zm-0.9089 -8.9029l0 0c-0.4678,0 -1.0829,0.3068 -1.3661,0.6789l-12.2754 16.2066c-0.2831,0.3738 -0.1314,0.6789 0.3382,0.6789l5.9608 -0.0046c0.4679,0 1.0828,-0.3066 1.366,-0.6808l1.9575 -2.5852c0.2833,-0.3725 0.8986,-0.679 1.3666,-0.679l22.6737 -0.0048c0.4679,-0.0016 0.8514,0.3817 0.8514,0.8512l0 2.2456c0,0.4678 0.3834,0.8531 0.8529,0.8531l4.681 0.0046c0.4678,0 0.8511,-0.3833 0.8511,-0.8514l0 -15.8554c0,-0.4681 -0.3832,-0.8513 -0.8511,-0.8513l-26.4065 -0.0065z"/>
   <path class="fil6 str0" d="M101.4237 16.9472c0,0.4678 0.3833,0.8514 0.8513,0.8514l4.682 0c0.468,0 0.8514,-0.3835 0.8514,-0.8514l0.0048 -8.9541c0,-0.4678 0.3317,-0.6558 0.734,-0.4178l8.8621 5.2253c0.4037,0.2376 1.1157,0.4317 1.5853,0.4317l3.402 -0.0031c0.4678,-0.0016 1.1814,-0.1955 1.5852,-0.4335l8.8606 -5.216c0.4037,-0.2376 0.7339,-0.0486 0.7339,0.4194l-0.0045 8.9482c0,0.4678 0.3818,0.8514 0.8513,0.8514l4.687 0c0.4678,0 0.8513,-0.3835 0.8513,-0.8514l0 -15.8491c0,-0.4681 -0.3834,-0.8513 -0.8513,-0.8513l-4.6825 -0.0049c-0.4679,0 -1.1735,0.2067 -1.5665,0.4615l-11.4441 7.3959c-0.3946,0.2552 -1.0375,0.2552 -1.4316,0l-11.4555 -7.3959c-0.3945,-0.2548 -1.0984,-0.4615 -1.5679,-0.4615l-4.6869 0.0049c-0.4679,0 -0.8513,0.3831 -0.8513,0.8513l0 15.8491z"/>
   <path class="fil7 str0" d="M143.1538 16.9472c0,0.4678 0.3833,0.8514 0.8514,0.8514l34.5987 0c0.4695,0 0.8529,-0.3835 0.8529,-0.8514l0 -8.7709c0,-0.4697 -0.3833,-0.8531 -0.8529,-0.8531l-17.0344 -0.0047c-0.4677,0 -0.8513,0.3834 -0.8496,0.8513l0.0031 1.7009c0,0.468 0.3835,0.8513 0.853,0.8513l10.6427 0.0113c0.4697,0 0.853,0.3834 0.853,0.8514l0 0.9025c0,0.4679 -0.3832,0.8513 -0.853,0.8513l-21.8224 -0.0043c-0.4678,-0.0017 -0.8513,-0.3833 -0.8513,-0.8531l0 -6.917c0,-0.4678 0.3834,-0.8513 0.8513,-0.8513l28.2077 -0.0059c0.4695,0 0.8529,-0.3834 0.8529,-0.8514l0 -2.7637c0,-0.468 -0.3833,-0.8514 -0.8529,-0.8514l-34.5987 0.0065c-0.468,0 -0.8514,0.3831 -0.8514,0.8513l0 15.8491z"/>
  </g>
 </g>
</svg>
